<?xml version="1.0" encoding="UTF-8"?>
<!DOCTYPE svg PUBLIC "-//W3C//DTD SVG 1.1//EN" "http://www.w3.org/Graphics/SVG/1.1/DTD/svg11.dtd">
<svg xmlns="http://www.w3.org/2000/svg" version="1.1" width="500px" height="400px" style="shape-rendering:geometricPrecision; text-rendering:geometricPrecision; image-rendering:optimizeQuality; fill-rule:evenodd; clip-rule:evenodd" xmlns:xlink="http://www.w3.org/1999/xlink">
<g><path style="opacity:1" fill="#9edce4" d="M 122.5,80.5 C 124.886,81.2981 127.22,82.2981 129.5,83.5C 146.76,83.1627 163.927,82.8293 181,82.5C 189.167,82.6667 197.333,82.8333 205.5,83C 206.244,84.0386 207.244,84.5386 208.5,84.5C 210.56,87.2402 212.226,90.2402 213.5,93.5C 211.338,93.1028 210.005,91.7695 209.5,89.5C 206.522,90.7181 203.688,90.3847 201,88.5C 200,89.1667 199,89.8333 198,90.5C 176,89.1667 154,89.1667 132,90.5C 131.583,89.244 130.75,88.5774 129.5,88.5C 126.512,84.8382 122.846,83.8382 118.5,85.5C 118.67,82.796 120.003,81.1293 122.5,80.5 Z"/></g>
<g><path style="opacity:1" fill="#98d9e2" d="M 348.5,88.5 C 350.326,90.1475 351.66,92.1475 352.5,94.5C 351.469,93.645 350.303,92.9783 349,92.5C 332.335,92.7531 315.502,93.0865 298.5,93.5C 290.5,93.3333 282.5,93.1667 274.5,93C 272.975,91.9914 271.308,91.4914 269.5,91.5C 268.512,90.205 267.512,88.8717 266.5,87.5C 267.496,87.4142 268.329,87.7476 269,88.5C 269.308,87.6919 269.808,87.0253 270.5,86.5C 276.365,87.1463 282.198,87.813 288,88.5C 304.853,88.126 322.687,88.126 341.5,88.5C 342.167,87.8333 342.833,87.1667 343.5,86.5C 345.075,87.4565 346.742,88.1231 348.5,88.5 Z"/></g>
<g><path style="opacity:1" fill="#94d8e1" d="M 129.5,88.5 C 130.75,88.5774 131.583,89.244 132,90.5C 154,89.1667 176,89.1667 198,90.5C 199,89.8333 200,89.1667 201,88.5C 203.688,90.3847 206.522,90.7181 209.5,89.5C 210.005,91.7695 211.338,93.1028 213.5,93.5C 214.674,94.5137 215.34,95.847 215.5,97.5C 189.406,96.5788 163.073,96.2455 136.5,96.5C 136.054,93.0068 134.388,91.6734 131.5,92.5C 130.326,91.4863 129.66,90.153 129.5,88.5 Z"/></g>
<g><path style="opacity:0.999" fill="#134e78" d="M 129.5,88.5 C 129.66,90.153 130.326,91.4863 131.5,92.5C 132.596,95.0316 133.929,97.3649 135.5,99.5C 136.399,102.395 137.733,105.062 139.5,107.5C 140.11,108.391 140.443,109.391 140.5,110.5C 139.833,114.5 139.167,114.5 138.5,110.5C 130.835,107.835 123.502,104.335 116.5,100C 115.207,99.51 113.873,99.3433 112.5,99.5C 112.5,98.5 112.5,97.5 112.5,96.5C 114.091,93.6484 115.424,90.6484 116.5,87.5C 117.5,87.1667 118.167,86.5 118.5,85.5C 122.846,83.8382 126.512,84.8382 129.5,88.5 Z"/></g>
<g><path style="opacity:0.125" fill="#e4f7fa" d="M 315.5,276.5 C 315.167,276.5 314.833,276.5 314.5,276.5C 312.252,273.672 310.252,270.672 308.5,267.5C 306.75,263.665 304.75,259.999 302.5,256.5C 301.921,253.669 300.588,251.336 298.5,249.5C 297.921,246.669 296.588,244.336 294.5,242.5C 293.358,238.883 291.692,235.55 289.5,232.5C 288.083,229.331 286.417,226.331 284.5,223.5C 282.75,219.665 280.75,215.999 278.5,212.5C 278.573,210.973 277.906,209.973 276.5,209.5C 275.008,205.182 273.008,201.182 270.5,197.5C 268.961,192.979 266.628,188.979 263.5,185.5C 262.674,182.515 261.341,179.849 259.5,177.5C 258.099,174.366 256.432,171.366 254.5,168.5C 253.416,165.996 252.083,163.663 250.5,161.5C 249.083,158.331 247.417,155.331 245.5,152.5C 245.672,151.508 245.338,150.842 244.5,150.5C 242.084,145.333 239.418,140.333 236.5,135.5C 234.668,131.164 232.335,127.164 229.5,123.5C 228.692,120.55 227.358,117.883 225.5,115.5C 224.416,112.996 223.083,110.663 221.5,108.5C 220.416,105.996 219.083,103.663 217.5,101.5C 217.34,99.847 216.674,98.5137 215.5,97.5C 215.34,95.847 214.674,94.5137 213.5,93.5C 212.226,90.2402 210.56,87.2402 208.5,84.5C 206.603,81.4406 203.936,79.2739 200.5,78C 175.167,77.3333 149.833,77.3333 124.5,78C 123.244,78.4169 122.577,79.2502 122.5,80.5C 120.003,81.1293 118.67,82.796 118.5,85.5C 118.167,86.5 117.5,87.1667 116.5,87.5C 117.66,83.7032 118.66,79.8698 119.5,76C 148.173,75.4512 176.839,75.1178 205.5,75C 242.438,140.967 279.104,208.134 315.5,276.5 Z"/></g>
<g><path style="opacity:0.999" fill="#a7e0e7" d="M 208.5,84.5 C 207.244,84.5386 206.244,84.0386 205.5,83C 197.333,82.8333 189.167,82.6667 181,82.5C 163.927,82.8293 146.76,83.1627 129.5,83.5C 127.22,82.2981 124.886,81.2981 122.5,80.5C 122.577,79.2502 123.244,78.4169 124.5,78C 149.833,77.3333 175.167,77.3333 200.5,78C 203.936,79.2739 206.603,81.4406 208.5,84.5 Z"/></g>
<g><path style="opacity:0.01" fill="#dae8ee" d="M 116.5,87.5 C 115.424,90.6484 114.091,93.6484 112.5,96.5C 111.833,97.1667 111.167,97.8333 110.5,98.5C 110.491,96.6916 110.991,95.0249 112,93.5C 113.277,91.2528 114.777,89.2528 116.5,87.5 Z"/></g>
<g><path style="opacity:0.009" fill="#e4f2fa" d="M 252.5,91.5 C 252.107,93.2838 251.441,94.9505 250.5,96.5C 249.662,96.8417 249.328,97.5084 249.5,98.5C 249.167,98.5 248.833,98.5 248.5,98.5C 248.389,97.8826 248.056,97.3826 247.5,97C 249.3,95.1881 250.967,93.3548 252.5,91.5 Z"/></g>
<g><path style="opacity:1" fill="#8dd4df" d="M 215.5,97.5 C 216.674,98.5137 217.34,99.847 217.5,101.5C 215.968,100.63 214.468,100.964 213,102.5C 187.082,102.138 161.249,101.138 135.5,99.5C 133.929,97.3649 132.596,95.0316 131.5,92.5C 134.388,91.6734 136.054,93.0068 136.5,96.5C 163.073,96.2455 189.406,96.5788 215.5,97.5 Z"/></g>
<g><path style="opacity:1" fill="#8ed5e0" d="M 269.5,91.5 C 271.308,91.4914 272.975,91.9914 274.5,93C 282.5,93.1667 290.5,93.3333 298.5,93.5C 315.502,93.0865 332.335,92.7531 349,92.5C 350.303,92.9783 351.469,93.645 352.5,94.5C 353.34,97.3607 354.673,100.027 356.5,102.5C 355.542,102.047 354.708,101.381 354,100.5C 352.721,102.937 351.221,103.437 349.5,102C 325.927,101.828 302.427,101.328 279,100.5C 277.989,101.337 276.822,101.67 275.5,101.5C 275.262,98.9315 273.929,97.2648 271.5,96.5C 270.559,94.9505 269.893,93.2838 269.5,91.5 Z"/></g>
<g><path style="opacity:1" fill="#107399" d="M 253.5,89.5 C 253.244,91.7925 253.577,93.9592 254.5,96C 262.087,101.043 269.587,106.21 277,111.5C 277.49,110.207 277.657,108.873 277.5,107.5C 278.401,108.29 279.068,109.29 279.5,110.5C 281.06,112.954 282.06,115.62 282.5,118.5C 282.167,118.5 281.833,118.5 281.5,118.5C 271.4,112.249 261.4,105.749 251.5,99C 250.748,98.3292 250.414,97.4959 250.5,96.5C 251.441,94.9505 252.107,93.2838 252.5,91.5C 252.328,90.5084 252.662,89.8417 253.5,89.5 Z"/></g>
<g><path style="opacity:1" fill="#125680" d="M 258.5,84.5 C 261.788,84.0156 264.455,85.0156 266.5,87.5C 267.512,88.8717 268.512,90.205 269.5,91.5C 269.893,93.2838 270.559,94.9505 271.5,96.5C 272.11,97.391 272.443,98.391 272.5,99.5C 272.719,100.675 272.386,101.675 271.5,102.5C 266.406,99.5369 261.572,96.2035 257,92.5C 256.667,92.8333 256.333,93.1667 256,93.5C 255.506,91.8659 255.34,90.1992 255.5,88.5C 255.557,87.391 255.89,86.391 256.5,85.5C 257.492,85.6716 258.158,85.3382 258.5,84.5 Z"/></g>
<g><path style="opacity:1" fill="#84d0dd" d="M 135.5,99.5 C 161.249,101.138 187.082,102.138 213,102.5C 214.468,100.964 215.968,100.63 217.5,101.5C 219.083,103.663 220.416,105.996 221.5,108.5C 195.044,107.677 167.711,107.344 139.5,107.5C 137.733,105.062 136.399,102.395 135.5,99.5 Z"/></g>
<g><path style="opacity:0.055" fill="#c7e2ea" d="M 109.5,100.5 C 109.5,101.167 109.5,101.833 109.5,102.5C 108.833,102.833 108.167,103.167 107.5,103.5C 107.427,101.973 108.094,100.973 109.5,100.5 Z"/></g>
<g><path style="opacity:1" fill="#0684a8" d="M 250.5,96.5 C 250.414,97.4959 250.748,98.3292 251.5,99C 261.4,105.749 271.4,112.249 281.5,118.5C 281.008,120.819 280.008,122.819 278.5,124.5C 277.175,123.047 276.342,123.381 276,125.5C 269.5,121 263,116.5 256.5,112C 255.809,110.933 255.309,109.766 255,108.5C 252.018,107.265 249.518,105.432 247.5,103C 248.582,101.67 249.249,100.17 249.5,98.5C 249.328,97.5084 249.662,96.8417 250.5,96.5 Z"/></g>
<g><path style="opacity:1" fill="#0d638b" d="M 255.5,88.5 C 255.34,90.1992 255.506,91.8659 256,93.5C 256.333,93.1667 256.667,92.8333 257,92.5C 261.572,96.2035 266.406,99.5369 271.5,102.5C 272.386,101.675 272.719,100.675 272.5,99.5C 274.653,101.794 276.32,104.46 277.5,107.5C 277.657,108.873 277.49,110.207 277,111.5C 269.587,106.21 262.087,101.043 254.5,96C 253.577,93.9592 253.244,91.7925 253.5,89.5C 254.167,89.1667 254.833,88.8333 255.5,88.5 Z"/></g>
<g><path style="opacity:0.013" fill="#e4f3f6" d="M 107.5,103.5 C 107.008,105.819 106.008,107.819 104.5,109.5C 104.025,106.687 105.025,104.687 107.5,103.5 Z"/></g>
<g><path style="opacity:0.067" fill="#d1f5f9" d="M 246.5,102.5 C 246.5,103.167 246.5,103.833 246.5,104.5C 245.833,104.833 245.167,105.167 244.5,105.5C 244.427,103.973 245.094,102.973 246.5,102.5 Z"/></g>
<g><path style="opacity:0.999" fill="#1593b3" d="M 248.5,98.5 C 248.833,98.5 249.167,98.5 249.5,98.5C 249.249,100.17 248.582,101.67 247.5,103C 249.518,105.432 252.018,107.265 255,108.5C 255.309,109.766 255.809,110.933 256.5,112C 263,116.5 269.5,121 276,125.5C 276.342,123.381 277.175,123.047 278.5,124.5C 278.573,126.027 277.906,127.027 276.5,127.5C 275.448,127.649 274.448,127.483 273.5,127C 269.869,123.19 265.869,119.857 261.5,117C 259.196,116.105 256.862,115.271 254.5,114.5C 253.191,112.024 251.358,110.024 249,108.5C 248.667,108.833 248.333,109.167 248,109.5C 246.991,107.975 246.491,106.308 246.5,104.5C 246.5,103.833 246.5,103.167 246.5,102.5C 246.66,100.847 247.326,99.5137 248.5,98.5 Z"/></g>
<g><path style="opacity:1" fill="#81cedc" d="M 271.5,96.5 C 273.929,97.2648 275.262,98.9315 275.5,101.5C 276.822,101.67 277.989,101.337 279,100.5C 302.427,101.328 325.927,101.828 349.5,102C 351.221,103.437 352.721,102.937 354,100.5C 354.708,101.381 355.542,102.047 356.5,102.5C 358.723,105.144 360.389,108.144 361.5,111.5C 333.977,111.6 306.644,111.267 279.5,110.5C 279.068,109.29 278.401,108.29 277.5,107.5C 276.32,104.46 274.653,101.794 272.5,99.5C 272.443,98.391 272.11,97.391 271.5,96.5 Z"/></g>
<g><path style="opacity:0.427" fill="#e6f8fa" d="M 384.5,149.5 C 383.833,149.5 383.167,149.5 382.5,149.5C 382.068,148.29 381.401,147.29 380.5,146.5C 380.34,144.847 379.674,143.514 378.5,142.5C 378.672,141.508 378.338,140.842 377.5,140.5C 375.766,136.7 373.766,133.034 371.5,129.5C 370.416,126.996 369.083,124.663 367.5,122.5C 365.75,118.665 363.75,114.999 361.5,111.5C 360.389,108.144 358.723,105.144 356.5,102.5C 354.673,100.027 353.34,97.3607 352.5,94.5C 351.66,92.1475 350.326,90.1475 348.5,88.5C 347.921,85.6689 346.588,83.3356 344.5,81.5C 342.91,79.7662 340.91,78.5995 338.5,78C 313.167,77.3333 287.833,77.3333 262.5,78C 259.906,80.0865 257.906,82.5865 256.5,85.5C 255.89,86.391 255.557,87.391 255.5,88.5C 254.833,88.8333 254.167,89.1667 253.5,89.5C 254.88,82.6226 258.88,78.1226 265.5,76C 291.578,76.1059 317.578,75.9392 343.5,75.5C 357.753,100.021 371.42,124.688 384.5,149.5 Z"/></g>
<g><path style="opacity:1" fill="#9fdde5" d="M 344.5,81.5 C 346.588,83.3356 347.921,85.6689 348.5,88.5C 346.742,88.1231 345.075,87.4565 343.5,86.5C 342.833,87.1667 342.167,87.8333 341.5,88.5C 322.687,88.126 304.853,88.126 288,88.5C 282.198,87.813 276.365,87.1463 270.5,86.5C 269.808,87.0253 269.308,87.6919 269,88.5C 268.329,87.7476 267.496,87.4142 266.5,87.5C 264.455,85.0156 261.788,84.0156 258.5,84.5C 261.136,82.6956 264.136,81.6956 267.5,81.5C 290.652,82.6283 313.652,82.6283 336.5,81.5C 338.481,81.4371 340.148,82.1038 341.5,83.5C 342.265,82.3881 343.265,81.7214 344.5,81.5 Z"/></g>
<g><path style="opacity:0.998" fill="#a7e0e7" d="M 344.5,81.5 C 343.265,81.7214 342.265,82.3881 341.5,83.5C 340.148,82.1038 338.481,81.4371 336.5,81.5C 313.652,82.6283 290.652,82.6283 267.5,81.5C 264.136,81.6956 261.136,82.6956 258.5,84.5C 258.158,85.3382 257.492,85.6716 256.5,85.5C 257.906,82.5865 259.906,80.0865 262.5,78C 287.833,77.3333 313.167,77.3333 338.5,78C 340.91,78.5995 342.91,79.7662 344.5,81.5 Z"/></g>
<g><path style="opacity:0.02" fill="#d7fafa" d="M 244.5,105.5 C 243.833,107.5 243.167,109.5 242.5,111.5C 242.167,111.5 241.833,111.5 241.5,111.5C 241.461,108.911 242.461,106.911 244.5,105.5 Z"/></g>
<g><path style="opacity:1" fill="#7bcbda" d="M 139.5,107.5 C 167.711,107.344 195.044,107.677 221.5,108.5C 223.083,110.663 224.416,112.996 225.5,115.5C 199.854,115.306 175.687,114.972 153,114.5C 152.667,115.167 152.333,115.833 152,116.5C 150.599,114.808 148.766,114.141 146.5,114.5C 146.254,111.53 144.588,110.197 141.5,110.5C 141.167,110.5 140.833,110.5 140.5,110.5C 140.443,109.391 140.11,108.391 139.5,107.5 Z"/></g>
<g><path style="opacity:1" fill="#105983" d="M 112.5,96.5 C 112.5,97.5 112.5,98.5 112.5,99.5C 113.873,99.3433 115.207,99.51 116.5,100C 123.502,104.335 130.835,107.835 138.5,110.5C 139.167,114.5 139.833,114.5 140.5,110.5C 140.833,110.5 141.167,110.5 141.5,110.5C 142.5,113.167 143.5,115.833 144.5,118.5C 142.588,120.657 140.921,122.991 139.5,125.5C 132.464,122.914 126.297,119.581 121,115.5C 120.586,115.957 120.086,116.291 119.5,116.5C 116.768,114.762 114.268,112.762 112,110.5C 110.175,111.571 109.008,110.904 108.5,108.5C 109.348,106.591 109.682,104.591 109.5,102.5C 109.5,101.833 109.5,101.167 109.5,100.5C 109.328,99.5084 109.662,98.8417 110.5,98.5C 111.167,97.8333 111.833,97.1667 112.5,96.5 Z"/></g>
<g><path style="opacity:1" fill="#76c9d8" d="M 279.5,110.5 C 306.644,111.267 333.977,111.6 361.5,111.5C 363.75,114.999 365.75,118.665 367.5,122.5C 364.738,120.343 361.571,119.01 358,118.5C 350.892,118.271 343.892,118.605 337,119.5C 331.667,118.833 326.333,118.167 321,117.5C 319.333,118.167 317.667,118.833 316,119.5C 311.107,118.854 306.274,118.521 301.5,118.5C 299.68,118.649 298.18,119.316 297,120.5C 296.667,119.833 296.333,119.167 296,118.5C 293.724,118.684 291.39,118.684 289,118.5C 286.98,119.032 286.147,120.365 286.5,122.5C 285.527,120.861 284.194,119.527 282.5,118.5C 282.06,115.62 281.06,112.954 279.5,110.5 Z"/></g>
<g><path style="opacity:0.09" fill="#b8d3e1" d="M 102.5,113.5 C 102.573,115.027 101.906,116.027 100.5,116.5C 100.427,114.973 101.094,113.973 102.5,113.5 Z"/></g>
<g><path style="opacity:1" fill="#1f9fbc" d="M 246.5,104.5 C 246.491,106.308 246.991,107.975 248,109.5C 248.333,109.167 248.667,108.833 249,108.5C 251.358,110.024 253.191,112.024 254.5,114.5C 256.862,115.271 259.196,116.105 261.5,117C 265.869,119.857 269.869,123.19 273.5,127C 274.448,127.483 275.448,127.649 276.5,127.5C 276.34,129.153 275.674,130.486 274.5,131.5C 272.801,131.66 271.134,131.494 269.5,131C 259.709,125.343 250.709,118.843 242.5,111.5C 243.167,109.5 243.833,107.5 244.5,105.5C 245.167,105.167 245.833,104.833 246.5,104.5 Z"/></g>
<g><path style="opacity:0.133" fill="#d2eaf3" d="M 100.5,116.5 C 99.5,119.167 98.5,121.833 97.5,124.5C 96.8333,124.833 96.1667,125.167 95.5,125.5C 96.2435,121.888 97.9101,118.888 100.5,116.5 Z"/></g>
<g><path style="opacity:1" fill="#0c658d" d="M 109.5,102.5 C 109.682,104.591 109.348,106.591 108.5,108.5C 109.008,110.904 110.175,111.571 112,110.5C 114.268,112.762 116.768,114.762 119.5,116.5C 120.086,116.291 120.586,115.957 121,115.5C 126.297,119.581 132.464,122.914 139.5,125.5C 138.258,129.655 136.258,133.322 133.5,136.5C 132.448,136.649 131.448,136.483 130.5,136C 131.34,134.334 130.84,134.167 129,135.5C 128.085,134.672 127.419,133.672 127,132.5C 125.984,133.634 125.317,133.301 125,131.5C 123.984,132.634 123.317,132.301 123,130.5C 121.984,131.634 121.317,131.301 121,129.5C 120,129.5 119,129.5 118,129.5C 114.21,126.384 110.044,123.717 105.5,121.5C 104.104,120.148 103.437,118.481 103.5,116.5C 103.997,114.182 104.33,111.848 104.5,109.5C 106.008,107.819 107.008,105.819 107.5,103.5C 108.167,103.167 108.833,102.833 109.5,102.5 Z"/></g>
<g><path style="opacity:1" fill="#6fc5d6" d="M 367.5,122.5 C 369.083,124.663 370.416,126.996 371.5,129.5C 370.211,127.752 368.711,127.419 367,128.5C 366.51,127.207 366.343,125.873 366.5,124.5C 343.724,124.555 321.224,124.222 299,123.5C 296.802,125.375 294.969,125.375 293.5,123.5C 291.958,124.747 290.458,124.747 289,123.5C 289.932,125.582 290.432,127.915 290.5,130.5C 288.659,128.151 287.326,125.485 286.5,122.5C 286.147,120.365 286.98,119.032 289,118.5C 291.39,118.684 293.724,118.684 296,118.5C 296.333,119.167 296.667,119.833 297,120.5C 298.18,119.316 299.68,118.649 301.5,118.5C 306.274,118.521 311.107,118.854 316,119.5C 317.667,118.833 319.333,118.167 321,117.5C 326.333,118.167 331.667,118.833 337,119.5C 343.892,118.605 350.892,118.271 358,118.5C 361.571,119.01 364.738,120.343 367.5,122.5 Z"/></g>
<g><path style="opacity:1" fill="#70c6d7" d="M 141.5,110.5 C 144.588,110.197 146.254,111.53 146.5,114.5C 148.766,114.141 150.599,114.808 152,116.5C 152.333,115.833 152.667,115.167 153,114.5C 175.687,114.972 199.854,115.306 225.5,115.5C 227.358,117.883 228.692,120.55 229.5,123.5C 228.778,123.918 228.278,124.584 228,125.5C 226.333,124.833 224.667,124.167 223,123.5C 200.171,124.44 176.504,124.44 152,123.5C 151.5,124 151,124.5 150.5,125C 152.65,127.041 153.65,129.541 153.5,132.5C 150.999,127.494 147.999,122.827 144.5,118.5C 143.5,115.833 142.5,113.167 141.5,110.5 Z"/></g>
<g><path style="opacity:0.094" fill="#d2f0f5" d="M 241.5,111.5 C 241.587,116.764 243.254,121.431 246.5,125.5C 247.11,126.391 247.443,127.391 247.5,128.5C 245.907,126.342 244.074,124.342 242,122.5C 241.731,119.648 240.897,116.982 239.5,114.5C 239.942,113.261 240.609,112.261 241.5,111.5 Z"/></g>
<g><path style="opacity:0.02" fill="#dbf4f7" d="M 281.5,118.5 C 281.833,118.5 282.167,118.5 282.5,118.5C 284.194,119.527 285.527,120.861 286.5,122.5C 287.326,125.485 288.659,128.151 290.5,130.5C 291.596,133.032 292.929,135.365 294.5,137.5C 295.079,140.331 296.412,142.664 298.5,144.5C 298.5,145.167 298.5,145.833 298.5,146.5C 296.53,144.353 294.697,142.02 293,139.5C 289.922,133.009 286.588,126.675 283,120.5C 277.214,131.908 271.047,143.075 264.5,154C 263.056,154.781 261.723,154.614 260.5,153.5C 258.765,149.85 256.432,146.684 253.5,144C 253.957,143.586 254.291,143.086 254.5,142.5C 253.544,140.925 252.877,139.258 252.5,137.5C 254.81,140.102 256.643,143.102 258,146.5C 263.076,151.12 266.576,150.12 268.5,143.5C 269.167,142.167 269.833,140.833 270.5,139.5C 272.358,137.117 273.692,134.45 274.5,131.5C 275.674,130.486 276.34,129.153 276.5,127.5C 277.906,127.027 278.573,126.027 278.5,124.5C 280.008,122.819 281.008,120.819 281.5,118.5 Z"/></g>
<g><path style="opacity:1" fill="#0e7097" d="M 104.5,109.5 C 104.33,111.848 103.997,114.182 103.5,116.5C 103.437,118.481 104.104,120.148 105.5,121.5C 110.044,123.717 114.21,126.384 118,129.5C 119,129.5 120,129.5 121,129.5C 121.317,131.301 121.984,131.634 123,130.5C 123.317,132.301 123.984,132.634 125,131.5C 125.317,133.301 125.984,133.634 127,132.5C 127.419,133.672 128.085,134.672 129,135.5C 130.84,134.167 131.34,134.334 130.5,136C 131.448,136.483 132.448,136.649 133.5,136.5C 132.358,140.117 130.692,143.45 128.5,146.5C 126.61,146.703 125.11,146.037 124,144.5C 123.667,145.167 123.333,145.833 123,146.5C 122.751,145.376 122.251,144.376 121.5,143.5C 116.052,140.187 110.386,137.354 104.5,135C 102.391,133.859 100.558,132.359 99,130.5C 96.3197,132.661 95.8197,131.828 97.5,128C 97.9054,127.055 98.572,126.388 99.5,126C 98.5842,125.722 97.9175,125.222 97.5,124.5C 98.5,121.833 99.5,119.167 100.5,116.5C 101.906,116.027 102.573,115.027 102.5,113.5C 102.66,111.847 103.326,110.514 104.5,109.5 Z"/></g>
<g><path style="opacity:0.043" fill="#daf6fa" d="M 95.5,125.5 C 95.2503,127.674 94.2503,129.341 92.5,130.5C 92.2729,128.067 93.2729,126.401 95.5,125.5 Z"/></g>
<g><path style="opacity:0.999" fill="#63c0d3" d="M 229.5,123.5 C 232.335,127.164 234.668,131.164 236.5,135.5C 234.549,134.718 233.049,133.384 232,131.5C 207.059,133.32 181.892,134.153 156.5,134C 155.748,134.671 155.414,135.504 155.5,136.5C 155.167,136.5 154.833,136.5 154.5,136.5C 154.167,135.167 153.833,133.833 153.5,132.5C 153.65,129.541 152.65,127.041 150.5,125C 151,124.5 151.5,124 152,123.5C 176.504,124.44 200.171,124.44 223,123.5C 224.667,124.167 226.333,124.833 228,125.5C 228.278,124.584 228.778,123.918 229.5,123.5 Z"/></g>
<g><path style="opacity:1" fill="#63c0d3" d="M 371.5,129.5 C 373.766,133.034 375.766,136.7 377.5,140.5C 374.675,139.522 373.342,137.522 373.5,134.5C 371.278,134.822 369.444,134.155 368,132.5C 367.717,135.742 366.883,136.076 365.5,133.5C 358.002,133.583 350.836,133.917 344,134.5C 327.53,133.826 311.03,133.16 294.5,132.5C 294.193,133.887 294.193,135.554 294.5,137.5C 292.929,135.365 291.596,133.032 290.5,130.5C 290.432,127.915 289.932,125.582 289,123.5C 290.458,124.747 291.958,124.747 293.5,123.5C 294.969,125.375 296.802,125.375 299,123.5C 321.224,124.222 343.724,124.555 366.5,124.5C 366.343,125.873 366.51,127.207 367,128.5C 368.711,127.419 370.211,127.752 371.5,129.5 Z"/></g>
<g><path style="opacity:1" fill="#45b2c8" d="M 241.5,111.5 C 241.833,111.5 242.167,111.5 242.5,111.5C 250.709,118.843 259.709,125.343 269.5,131C 271.134,131.494 272.801,131.66 274.5,131.5C 273.692,134.45 272.358,137.117 270.5,139.5C 264.499,137.416 258.999,134.416 254,130.5C 253.667,130.833 253.333,131.167 253,131.5C 251.812,130.437 251.312,129.103 251.5,127.5C 249.678,127.169 248.011,126.502 246.5,125.5C 243.254,121.431 241.587,116.764 241.5,111.5 Z"/></g>
<g><path style="opacity:0.078" fill="#dcf8fa" d="M 248.5,130.5 C 249.5,130.833 250.167,131.5 250.5,132.5C 251.441,134.05 252.107,135.716 252.5,137.5C 250.331,135.66 248.998,133.326 248.5,130.5 Z"/></g>
<g><path style="opacity:0.624" fill="#94c8d7" d="M 92.5,130.5 C 92.4681,133.994 91.1347,136.661 88.5,138.5C 89.3257,135.515 90.659,132.849 92.5,130.5 Z"/></g>
<g><path style="opacity:0.022" fill="#e1f6f9" d="M 144.5,118.5 C 147.999,122.827 150.999,127.494 153.5,132.5C 153.833,133.833 154.167,135.167 154.5,136.5C 150.799,131.598 147.632,126.265 145,120.5C 122.532,162.278 100.032,203.612 77.5,244.5C 66.1862,245.499 54.8529,245.832 43.5,245.5C 54.1667,244.833 64.8333,244.167 75.5,243.5C 76.5,241.5 77.5,239.5 78.5,237.5C 79.5294,235.483 80.5294,233.483 81.5,231.5C 83.1581,228.912 84.8248,226.245 86.5,223.5C 89.7547,217.992 92.7547,212.325 95.5,206.5C 96.8333,204.167 98.1667,201.833 99.5,199.5C 101.42,196.661 103.087,193.661 104.5,190.5C 106.196,187.15 107.863,183.817 109.5,180.5C 111.485,177.202 113.485,173.869 115.5,170.5C 116.773,168.287 117.773,165.954 118.5,163.5C 120.653,161.206 122.32,158.54 123.5,155.5C 125.42,152.661 127.087,149.661 128.5,146.5C 130.692,143.45 132.358,140.117 133.5,136.5C 136.258,133.322 138.258,129.655 139.5,125.5C 140.921,122.991 142.588,120.657 144.5,118.5 Z"/></g>
<g><path style="opacity:1" fill="#6bc3d5" d="M 246.5,125.5 C 248.011,126.502 249.678,127.169 251.5,127.5C 251.312,129.103 251.812,130.437 253,131.5C 253.333,131.167 253.667,130.833 254,130.5C 258.999,134.416 264.499,137.416 270.5,139.5C 269.833,140.833 269.167,142.167 268.5,143.5C 261.17,142.997 255.836,139.497 252.5,133C 251.906,132.536 251.239,132.369 250.5,132.5C 250.167,131.5 249.5,130.833 248.5,130.5C 247.662,130.158 247.328,129.492 247.5,128.5C 247.443,127.391 247.11,126.391 246.5,125.5 Z"/></g>
<g><path style="opacity:0.999" fill="#077ea2" d="M 97.5,124.5 C 97.9175,125.222 98.5842,125.722 99.5,126C 98.572,126.388 97.9054,127.055 97.5,128C 95.8197,131.828 96.3197,132.661 99,130.5C 100.558,132.359 102.391,133.859 104.5,135C 110.386,137.354 116.052,140.187 121.5,143.5C 122.251,144.376 122.751,145.376 123,146.5C 123.333,145.833 123.667,145.167 124,144.5C 125.11,146.037 126.61,146.703 128.5,146.5C 127.087,149.661 125.42,152.661 123.5,155.5C 121.983,155.511 120.816,156.177 120,157.5C 109.16,152.168 98.6598,146.502 88.5,140.5C 88.5,139.833 88.5,139.167 88.5,138.5C 91.1347,136.661 92.4681,133.994 92.5,130.5C 94.2503,129.341 95.2503,127.674 95.5,125.5C 96.1667,125.167 96.8333,124.833 97.5,124.5 Z"/></g>
<g><path style="opacity:0.999" fill="#58bbcf" d="M 236.5,135.5 C 239.418,140.333 242.084,145.333 244.5,150.5C 243.167,149.833 241.833,149.167 240.5,148.5C 239.85,146.565 239.517,144.565 239.5,142.5C 237.876,142.64 236.71,141.973 236,140.5C 235.692,141.308 235.192,141.975 234.5,142.5C 213.067,142.058 191.067,141.724 168.5,141.5C 165.326,141.991 162.326,142.657 159.5,143.5C 157.929,141.365 156.596,139.032 155.5,136.5C 155.414,135.504 155.748,134.671 156.5,134C 181.892,134.153 207.059,133.32 232,131.5C 233.049,133.384 234.549,134.718 236.5,135.5 Z"/></g>
<g><path style="opacity:0.996" fill="#88d1dc" d="M 250.5,132.5 C 251.239,132.369 251.906,132.536 252.5,133C 255.836,139.497 261.17,142.997 268.5,143.5C 266.576,150.12 263.076,151.12 258,146.5C 256.643,143.102 254.81,140.102 252.5,137.5C 252.107,135.716 251.441,134.05 250.5,132.5 Z"/></g>
<g><path style="opacity:1" fill="#57bbcf" d="M 377.5,140.5 C 378.338,140.842 378.672,141.508 378.5,142.5C 370.51,141.296 362.677,141.296 355,142.5C 354.667,141.833 354.333,141.167 354,140.5C 348.159,142.054 342.159,142.721 336,142.5C 325.849,141.715 316.016,141.381 306.5,141.5C 304.626,141.39 303.126,142.056 302,143.5C 300.264,140.936 299.098,141.269 298.5,144.5C 296.412,142.664 295.079,140.331 294.5,137.5C 294.193,135.554 294.193,133.887 294.5,132.5C 311.03,133.16 327.53,133.826 344,134.5C 350.836,133.917 358.002,133.583 365.5,133.5C 366.883,136.076 367.717,135.742 368,132.5C 369.444,134.155 371.278,134.822 373.5,134.5C 373.342,137.522 374.675,139.522 377.5,140.5 Z"/></g>
<g><path style="opacity:0.055" fill="#c7eaf1" d="M 88.5,138.5 C 88.5,139.167 88.5,139.833 88.5,140.5C 87.1302,142.25 86.1302,144.25 85.5,146.5C 84.8333,146.833 84.1667,147.167 83.5,147.5C 83.7031,145.956 84.3698,144.622 85.5,143.5C 84.9839,141.267 85.9839,139.6 88.5,138.5 Z"/></g>
<g><path style="opacity:1" fill="#4fb7cc" d="M 378.5,142.5 C 379.674,143.514 380.34,144.847 380.5,146.5C 378.533,147.632 376.7,147.299 375,145.5C 373.667,146.167 372.667,147.167 372,148.5C 370.057,146.285 368.391,146.285 367,148.5C 366.612,147.572 365.945,146.905 365,146.5C 348.663,147.359 331.663,147.359 314,146.5C 309.92,147.3 305.753,147.8 301.5,148C 302.598,148.77 302.598,149.603 301.5,150.5C 301.167,150.5 300.833,150.5 300.5,150.5C 300.34,148.847 299.674,147.514 298.5,146.5C 298.5,145.833 298.5,145.167 298.5,144.5C 299.098,141.269 300.264,140.936 302,143.5C 303.126,142.056 304.626,141.39 306.5,141.5C 316.016,141.381 325.849,141.715 336,142.5C 342.159,142.721 348.159,142.054 354,140.5C 354.333,141.167 354.667,141.833 355,142.5C 362.677,141.296 370.51,141.296 378.5,142.5 Z"/></g>
<g><path style="opacity:0.09" fill="#d6eef2" d="M 154.5,136.5 C 154.833,136.5 155.167,136.5 155.5,136.5C 156.596,139.032 157.929,141.365 159.5,143.5C 159.833,144.833 160.167,146.167 160.5,147.5C 157.722,144.279 155.722,140.612 154.5,136.5 Z"/></g>
<g><path style="opacity:1" fill="#4fb7cc" d="M 240.5,148.5 C 239.206,147.71 238.039,146.71 237,145.5C 236.667,146.5 236.333,147.5 236,148.5C 235.481,147.484 234.647,146.818 233.5,146.5C 219.116,147.191 204.782,147.525 190.5,147.5C 189.483,144.972 188.316,144.972 187,147.5C 186.667,147.167 186.333,146.833 186,146.5C 178.913,147.315 171.747,147.815 164.5,148C 163.748,148.671 163.414,149.504 163.5,150.5C 162.272,149.694 161.272,148.694 160.5,147.5C 160.167,146.167 159.833,144.833 159.5,143.5C 162.326,142.657 165.326,141.991 168.5,141.5C 191.067,141.724 213.067,142.058 234.5,142.5C 235.192,141.975 235.692,141.308 236,140.5C 236.71,141.973 237.876,142.64 239.5,142.5C 239.517,144.565 239.85,146.565 240.5,148.5 Z"/></g>
<g><path style="opacity:0.999" fill="#0687aa" d="M 88.5,140.5 C 98.6598,146.502 109.16,152.168 120,157.5C 120.816,156.177 121.983,155.511 123.5,155.5C 122.32,158.54 120.653,161.206 118.5,163.5C 116.589,163.426 115.422,162.426 115,160.5C 114.667,160.833 114.333,161.167 114,161.5C 111.656,159.226 108.822,158.059 105.5,158C 99.9576,153.807 94.1243,150.974 88,149.5C 86.955,148.627 86.1217,147.627 85.5,146.5C 86.1302,144.25 87.1302,142.25 88.5,140.5 Z"/></g>
<g><path style="opacity:1" fill="#48b4ca" d="M 240.5,148.5 C 241.833,149.167 243.167,149.833 244.5,150.5C 245.338,150.842 245.672,151.508 245.5,152.5C 218.051,152.021 191.551,151.688 166,151.5C 165.544,152.744 166.044,153.577 167.5,154C 166.748,154.671 166.414,155.504 166.5,156.5C 164.992,154.819 163.992,152.819 163.5,150.5C 163.414,149.504 163.748,148.671 164.5,148C 171.747,147.815 178.913,147.315 186,146.5C 186.333,146.833 186.667,147.167 187,147.5C 188.316,144.972 189.483,144.972 190.5,147.5C 204.782,147.525 219.116,147.191 233.5,146.5C 234.647,146.818 235.481,147.484 236,148.5C 236.333,147.5 236.667,146.5 237,145.5C 238.039,146.71 239.206,147.71 240.5,148.5 Z"/></g>
<g><path style="opacity:0.01" fill="#e7fbfc" d="M 298.5,146.5 C 299.674,147.514 300.34,148.847 300.5,150.5C 297.519,150.206 296.852,148.872 298.5,146.5 Z"/></g>
<g><path style="opacity:1" fill="#44b2c8" d="M 380.5,146.5 C 381.401,147.29 382.068,148.29 382.5,149.5C 383.847,152.193 385.18,154.86 386.5,157.5C 385.213,156.232 384.213,156.565 383.5,158.5C 382.904,157.284 382.737,155.951 383,154.5C 381.981,155.687 380.814,156.687 379.5,157.5C 366.545,156.685 353.545,156.185 340.5,156C 341.696,155.346 341.696,154.846 340.5,154.5C 339.459,156.991 338.626,156.991 338,154.5C 337.612,155.428 336.945,156.095 336,156.5C 327.344,156.314 318.511,156.314 309.5,156.5C 307.783,157.668 307.116,159.335 307.5,161.5C 305.262,158.028 303.262,154.362 301.5,150.5C 302.598,149.603 302.598,148.77 301.5,148C 305.753,147.8 309.92,147.3 314,146.5C 331.663,147.359 348.663,147.359 365,146.5C 365.945,146.905 366.612,147.572 367,148.5C 368.391,146.285 370.057,146.285 372,148.5C 372.667,147.167 373.667,146.167 375,145.5C 376.7,147.299 378.533,147.632 380.5,146.5 Z"/></g>
<g><path style="opacity:1" fill="#0490b2" d="M 85.5,146.5 C 86.1217,147.627 86.955,148.627 88,149.5C 94.1243,150.974 99.9576,153.807 105.5,158C 108.822,158.059 111.656,159.226 114,161.5C 114.333,161.167 114.667,160.833 115,160.5C 115.422,162.426 116.589,163.426 118.5,163.5C 117.773,165.954 116.773,168.287 115.5,170.5C 113.444,172.173 111.277,172.839 109,172.5C 101.136,168.767 93.3023,164.267 85.5,159C 83.4521,157.759 81.4521,157.592 79.5,158.5C 80.8333,154.833 82.1667,151.167 83.5,147.5C 84.1667,147.167 84.8333,146.833 85.5,146.5 Z"/></g>
<g><path style="opacity:1" fill="#41b0c7" d="M 245.5,152.5 C 247.417,155.331 249.083,158.331 250.5,161.5C 249.542,161.047 248.708,160.381 248,159.5C 247.667,159.833 247.333,160.167 247,160.5C 246.167,159.5 245.333,158.5 244.5,157.5C 221.697,157.257 198.53,157.59 175,158.5C 174.692,157.692 174.192,157.025 173.5,156.5C 171.296,157.472 169.963,159.139 169.5,161.5C 168.263,160.035 167.263,158.368 166.5,156.5C 166.414,155.504 166.748,154.671 167.5,154C 166.044,153.577 165.544,152.744 166,151.5C 191.551,151.688 218.051,152.021 245.5,152.5 Z"/></g>
<g><path style="opacity:0.11" fill="#cdeff4" d="M 300.5,150.5 C 300.833,150.5 301.167,150.5 301.5,150.5C 303.262,154.362 305.262,158.028 307.5,161.5C 307.5,162.167 307.5,162.833 307.5,163.5C 306.542,163.047 305.708,162.381 305,161.5C 303.463,157.771 301.963,154.105 300.5,150.5 Z"/></g>
<g><path style="opacity:0.055" fill="#d7f4f8" d="M 160.5,147.5 C 161.272,148.694 162.272,149.694 163.5,150.5C 163.992,152.819 164.992,154.819 166.5,156.5C 167.263,158.368 168.263,160.035 169.5,161.5C 171.439,166.09 173.773,170.423 176.5,174.5C 176.66,176.153 177.326,177.486 178.5,178.5C 178.5,179.167 178.5,179.833 178.5,180.5C 176.777,178.747 175.277,176.747 174,174.5C 168.956,165.746 164.456,156.746 160.5,147.5 Z"/></g>
<g><path style="opacity:0.714" fill="#95ceda" d="M 83.5,147.5 C 82.1667,151.167 80.8333,154.833 79.5,158.5C 78.8333,158.5 78.1667,158.5 77.5,158.5C 78.2173,154.06 80.2173,150.394 83.5,147.5 Z"/></g>
<g><path style="opacity:1" fill="#36abc4" d="M 250.5,161.5 C 252.083,163.663 253.416,165.996 254.5,168.5C 229.062,168.471 203.228,168.138 177,167.5C 176.167,167.667 175.333,167.833 174.5,168C 175.669,170.007 176.335,172.173 176.5,174.5C 173.773,170.423 171.439,166.09 169.5,161.5C 169.963,159.139 171.296,157.472 173.5,156.5C 174.192,157.025 174.692,157.692 175,158.5C 198.53,157.59 221.697,157.257 244.5,157.5C 245.333,158.5 246.167,159.5 247,160.5C 247.333,160.167 247.667,159.833 248,159.5C 248.708,160.381 249.542,161.047 250.5,161.5 Z"/></g>
<g><path style="opacity:1" fill="#37abc4" d="M 386.5,157.5 C 388.867,160.904 390.867,164.571 392.5,168.5C 371.754,168.302 350.92,167.969 330,167.5C 325.572,167.844 321.238,168.511 317,169.5C 316.333,168.167 315.333,167.167 314,166.5C 313.505,168.473 313.338,170.473 313.5,172.5C 312.079,169.991 310.412,167.657 308.5,165.5C 307.662,165.158 307.328,164.492 307.5,163.5C 307.5,162.833 307.5,162.167 307.5,161.5C 307.116,159.335 307.783,157.668 309.5,156.5C 318.511,156.314 327.344,156.314 336,156.5C 336.945,156.095 337.612,155.428 338,154.5C 338.626,156.991 339.459,156.991 340.5,154.5C 341.696,154.846 341.696,155.346 340.5,156C 353.545,156.185 366.545,156.685 379.5,157.5C 380.814,156.687 381.981,155.687 383,154.5C 382.737,155.951 382.904,157.284 383.5,158.5C 384.213,156.565 385.213,156.232 386.5,157.5 Z"/></g>
<g><path style="opacity:0.078" fill="#daf7fa" d="M 77.5,158.5 C 76.142,161.874 74.8086,165.207 73.5,168.5C 72.0937,168.973 71.427,169.973 71.5,171.5C 70.8333,171.833 70.1667,172.167 69.5,172.5C 71.0009,167.1 73.6675,162.433 77.5,158.5 Z"/></g>
<g><path style="opacity:1" fill="#1a9cba" d="M 115.5,170.5 C 113.485,173.869 111.485,177.202 109.5,180.5C 108.141,181.007 107.141,182.007 106.5,183.5C 104.323,182.496 103.989,183.162 105.5,185.5C 104.753,185.736 103.92,186.07 103,186.5C 98.6633,183.499 94.33,180.499 90,177.5C 89.6667,177.833 89.3333,178.167 89,178.5C 85.3233,176.244 81.4899,174.411 77.5,173C 75.8082,171.693 74.4749,170.193 73.5,168.5C 74.8086,165.207 76.142,161.874 77.5,158.5C 78.1667,158.5 78.8333,158.5 79.5,158.5C 81.4521,157.592 83.4521,157.759 85.5,159C 93.3023,164.267 101.136,168.767 109,172.5C 111.277,172.839 113.444,172.173 115.5,170.5 Z"/></g>
<g><path style="opacity:1" fill="#2aa5c0" d="M 254.5,168.5 C 256.432,171.366 258.099,174.366 259.5,177.5C 258.518,176.859 257.518,176.193 256.5,175.5C 255.483,178.028 254.316,178.028 253,175.5C 229.549,176.633 205.549,176.633 181,175.5C 179.583,176.078 178.75,177.078 178.5,178.5C 177.326,177.486 176.66,176.153 176.5,174.5C 176.335,172.173 175.669,170.007 174.5,168C 175.333,167.833 176.167,167.667 177,167.5C 203.228,168.138 229.062,168.471 254.5,168.5 Z"/></g>
<g><path style="opacity:1" fill="#2ba5c0" d="M 392.5,168.5 C 394.924,171.008 396.59,174.008 397.5,177.5C 393.53,176.834 389.53,176.168 385.5,175.5C 363.589,175.926 341.256,176.426 318.5,177C 318.167,177.333 317.833,177.667 317.5,178C 318.549,181.001 320.549,182.835 323.5,183.5C 321.952,183.821 321.285,184.821 321.5,186.5C 318.331,182.167 315.664,177.5 313.5,172.5C 313.338,170.473 313.505,168.473 314,166.5C 315.333,167.167 316.333,168.167 317,169.5C 321.238,168.511 325.572,167.844 330,167.5C 350.92,167.969 371.754,168.302 392.5,168.5 Z"/></g>
<g><path style="opacity:0.999" fill="#2ca5c0" d="M 73.5,168.5 C 74.4749,170.193 75.8082,171.693 77.5,173C 81.4899,174.411 85.3233,176.244 89,178.5C 89.3333,178.167 89.6667,177.833 90,177.5C 94.33,180.499 98.6633,183.499 103,186.5C 103.92,186.07 104.753,185.736 105.5,185.5C 103.989,183.162 104.323,182.496 106.5,183.5C 107.141,182.007 108.141,181.007 109.5,180.5C 107.863,183.817 106.196,187.15 104.5,190.5C 103.504,190.586 102.671,190.252 102,189.5C 100.592,193.169 98.9249,193.169 97,189.5C 96.6667,189.833 96.3333,190.167 96,190.5C 89.566,186.366 82.7327,182.866 75.5,180C 74.6634,178.989 74.33,177.822 74.5,176.5C 73.1779,176.33 72.0113,176.663 71,177.5C 71.1349,175.575 71.3016,173.575 71.5,171.5C 71.427,169.973 72.0937,168.973 73.5,168.5 Z"/></g>
<g><path style="opacity:0.01" fill="#f2fbff" d="M 69.5,172.5 C 68.8333,174.5 68.1667,176.5 67.5,178.5C 67.1667,178.5 66.8333,178.5 66.5,178.5C 66.461,175.911 67.461,173.911 69.5,172.5 Z"/></g>
<g><path style="opacity:1" fill="#1f9fbd" d="M 259.5,177.5 C 261.341,179.849 262.674,182.515 263.5,185.5C 244.113,186.194 224.779,186.527 205.5,186.5C 200.5,186.333 195.5,186.167 190.5,186C 186.217,183.307 184.217,184.474 184.5,189.5C 182.748,186.328 180.748,183.328 178.5,180.5C 178.5,179.833 178.5,179.167 178.5,178.5C 178.75,177.078 179.583,176.078 181,175.5C 205.549,176.633 229.549,176.633 253,175.5C 254.316,178.028 255.483,178.028 256.5,175.5C 257.518,176.193 258.518,176.859 259.5,177.5 Z"/></g>
<g><path style="opacity:1" fill="#1e9fbd" d="M 397.5,177.5 C 399.924,180.008 401.59,183.008 402.5,186.5C 401.504,186.586 400.671,186.252 400,185.5C 398.672,180.437 397.672,180.771 397,186.5C 372.936,185.725 348.936,185.725 325,186.5C 323.961,185.756 323.461,184.756 323.5,183.5C 320.549,182.835 318.549,181.001 317.5,178C 317.833,177.667 318.167,177.333 318.5,177C 341.256,176.426 363.589,175.926 385.5,175.5C 389.53,176.168 393.53,176.834 397.5,177.5 Z"/></g>
<g><path style="opacity:0.999" fill="#3dadc6" d="M 71.5,171.5 C 71.3016,173.575 71.1349,175.575 71,177.5C 72.0113,176.663 73.1779,176.33 74.5,176.5C 74.33,177.822 74.6634,178.989 75.5,180C 82.7327,182.866 89.566,186.366 96,190.5C 96.3333,190.167 96.6667,189.833 97,189.5C 98.9249,193.169 100.592,193.169 102,189.5C 102.671,190.252 103.504,190.586 104.5,190.5C 103.087,193.661 101.42,196.661 99.5,199.5C 97.8632,200.218 96.1966,200.384 94.5,200C 89.2464,197.793 84.4131,194.96 80,191.5C 79.6667,191.833 79.3333,192.167 79,192.5C 75.4445,190.397 72.1112,188.064 69,185.5C 68.6667,185.833 68.3333,186.167 68,186.5C 66.1865,183.922 66.0198,181.255 67.5,178.5C 68.1667,176.5 68.8333,174.5 69.5,172.5C 70.1667,172.167 70.8333,171.833 71.5,171.5 Z"/></g>
<g><path style="opacity:0.122" fill="#caecf0" d="M 308.5,165.5 C 310.412,167.657 312.079,169.991 313.5,172.5C 315.664,177.5 318.331,182.167 321.5,186.5C 322.167,188.5 322.833,190.5 323.5,192.5C 321.686,190.236 319.853,187.903 318,185.5C 314.57,178.92 311.404,172.253 308.5,165.5 Z"/></g>
<g><path style="opacity:0.043" fill="#daf5f9" d="M 382.5,149.5 C 383.167,149.5 383.833,149.5 384.5,149.5C 402.22,180.946 419.387,212.612 436,244.5C 409.572,245.661 383.072,245.828 356.5,245C 352.321,243.319 349.321,240.485 347.5,236.5C 347.833,236.5 348.167,236.5 348.5,236.5C 350.752,240.424 354.085,242.757 358.5,243.5C 383.328,244.498 408.328,244.831 433.5,244.5C 433.737,243.209 433.404,242.209 432.5,241.5C 431.921,238.669 430.588,236.336 428.5,234.5C 426.926,229.68 424.593,225.347 421.5,221.5C 420.59,218.008 418.924,215.008 416.5,212.5C 414.593,207.016 411.927,202.016 408.5,197.5C 407.247,193.389 405.247,189.723 402.5,186.5C 401.59,183.008 399.924,180.008 397.5,177.5C 396.59,174.008 394.924,171.008 392.5,168.5C 390.867,164.571 388.867,160.904 386.5,157.5C 385.18,154.86 383.847,152.193 382.5,149.5 Z"/></g>
<g><path style="opacity:0.102" fill="#d9f3f9" d="M 65.5,180.5 C 64.8333,182.5 64.1667,184.5 63.5,186.5C 62.1667,188.167 60.8333,189.833 59.5,191.5C 60.2651,187.091 62.2651,183.424 65.5,180.5 Z"/></g>
<g><path style="opacity:1" fill="#1299b8" d="M 263.5,185.5 C 266.628,188.979 268.961,192.979 270.5,197.5C 244.768,197.078 218.935,196.412 193,195.5C 191.906,197.078 191.072,198.745 190.5,200.5C 188.262,197.028 186.262,193.362 184.5,189.5C 184.217,184.474 186.217,183.307 190.5,186C 195.5,186.167 200.5,186.333 205.5,186.5C 224.779,186.527 244.113,186.194 263.5,185.5 Z"/></g>
<g><path style="opacity:1" fill="#169ab9" d="M 402.5,186.5 C 405.247,189.723 407.247,193.389 408.5,197.5C 407.209,197.737 406.209,197.404 405.5,196.5C 405.426,194.589 404.426,193.422 402.5,193C 377.261,192.828 352.094,192.328 327,191.5C 327.355,192.959 327.189,194.293 326.5,195.5C 325.833,195.167 325.167,194.833 324.5,194.5C 323.662,194.158 323.328,193.492 323.5,192.5C 322.833,190.5 322.167,188.5 321.5,186.5C 321.285,184.821 321.952,183.821 323.5,183.5C 323.461,184.756 323.961,185.756 325,186.5C 348.936,185.725 372.936,185.725 397,186.5C 397.672,180.771 398.672,180.437 400,185.5C 400.671,186.252 401.504,186.586 402.5,186.5 Z"/></g>
<g><path style="opacity:1" fill="#4fb6cc" d="M 66.5,178.5 C 66.8333,178.5 67.1667,178.5 67.5,178.5C 66.0198,181.255 66.1865,183.922 68,186.5C 68.3333,186.167 68.6667,185.833 69,185.5C 72.1112,188.064 75.4445,190.397 79,192.5C 79.3333,192.167 79.6667,191.833 80,191.5C 84.4131,194.96 89.2464,197.793 94.5,200C 96.1966,200.384 97.8632,200.218 99.5,199.5C 98.1667,201.833 96.8333,204.167 95.5,206.5C 93.1727,206.247 91.1727,206.914 89.5,208.5C 81.2457,204.244 72.9123,200.077 64.5,196C 63.6433,195.311 62.9767,194.478 62.5,193.5C 62.8936,191.47 63.2269,189.137 63.5,186.5C 64.1667,184.5 64.8333,182.5 65.5,180.5C 65.3284,179.508 65.6618,178.842 66.5,178.5 Z"/></g>
<g><path style="opacity:0.059" fill="#cff1f5" d="M 136.5,188.5 C 134.192,190.471 131.858,192.471 129.5,194.5C 130.534,191.142 132.867,189.142 136.5,188.5 Z"/></g>
<g><path style="opacity:0.998" fill="#1493b3" d="M 125.5,203.5 C 126.823,200.543 128.157,197.543 129.5,194.5C 131.858,192.471 134.192,190.471 136.5,188.5C 138.262,188.643 139.929,188.309 141.5,187.5C 142.497,194.134 142.83,200.8 142.5,207.5C 136.833,207.5 131.167,207.5 125.5,207.5C 125.5,206.167 125.5,204.833 125.5,203.5 Z"/></g>
<g><path style="opacity:1" fill="#0592b4" d="M 270.5,197.5 C 273.008,201.182 275.008,205.182 276.5,209.5C 274.488,208.533 272.988,207.2 272,205.5C 271.439,206.022 270.772,206.355 270,206.5C 266.818,205.299 263.485,204.632 260,204.5C 238.422,205.817 216.589,206.817 194.5,207.5C 192.929,205.365 191.596,203.032 190.5,200.5C 191.072,198.745 191.906,197.078 193,195.5C 218.935,196.412 244.768,197.078 270.5,197.5 Z"/></g>
<g><path style="opacity:0.106" fill="#c3ecf4" d="M 324.5,194.5 C 325.167,194.833 325.833,195.167 326.5,195.5C 326.66,197.153 327.326,198.486 328.5,199.5C 328.833,200.833 329.167,202.167 329.5,203.5C 327.076,200.992 325.41,197.992 324.5,194.5 Z"/></g>
<g><path style="opacity:1" fill="#0795b6" d="M 405.5,196.5 C 404.5,196.5 403.5,196.5 402.5,196.5C 402.5,197.5 402.5,198.5 402.5,199.5C 379.831,199.667 357.164,199.5 334.5,199C 333.299,198.097 332.465,196.931 332,195.5C 331.147,197.125 330.147,197.458 329,196.5C 328.517,197.448 328.351,198.448 328.5,199.5C 327.326,198.486 326.66,197.153 326.5,195.5C 327.189,194.293 327.355,192.959 327,191.5C 352.094,192.328 377.261,192.828 402.5,193C 404.426,193.422 405.426,194.589 405.5,196.5 Z"/></g>
<g><path style="opacity:1" fill="#0692b3" d="M 405.5,196.5 C 406.209,197.404 407.209,197.737 408.5,197.5C 411.927,202.016 414.593,207.016 416.5,212.5C 415.504,212.414 414.671,212.748 414,213.5C 413.768,212.263 413.268,211.263 412.5,210.5C 412.398,208.388 411.898,206.388 411,204.5C 408.849,204.274 406.683,204.941 404.5,206.5C 398.613,206.515 392.613,206.348 386.5,206C 385.234,205.691 384.067,205.191 383,204.5C 374.057,204.934 364.057,205.601 353,206.5C 346.496,206.296 340.496,205.963 335,205.5C 333.961,206.244 333.461,207.244 333.5,208.5C 332.167,206.833 330.833,205.167 329.5,203.5C 329.167,202.167 328.833,200.833 328.5,199.5C 328.351,198.448 328.517,197.448 329,196.5C 330.147,197.458 331.147,197.125 332,195.5C 332.465,196.931 333.299,198.097 334.5,199C 357.164,199.5 379.831,199.667 402.5,199.5C 402.5,198.5 402.5,197.5 402.5,196.5C 403.5,196.5 404.5,196.5 405.5,196.5 Z"/></g>
<g><path style="opacity:0.018" fill="#e9f9fa" d="M 59.5,191.5 C 58.758,193.98 57.758,196.313 56.5,198.5C 55.8571,200.076 54.8571,201.41 53.5,202.5C 54.2197,198.055 56.2197,194.388 59.5,191.5 Z"/></g>
<g><path style="opacity:0.298" fill="#a7dde8" d="M 129.5,194.5 C 128.157,197.543 126.823,200.543 125.5,203.5C 125.5,202.833 125.5,202.167 125.5,201.5C 125.555,198.386 126.888,196.052 129.5,194.5 Z"/></g>
<g><path style="opacity:1" fill="#038caf" d="M 276.5,209.5 C 277.906,209.973 278.573,210.973 278.5,212.5C 276.956,212.703 275.622,213.37 274.5,214.5C 262.99,213.188 251.323,212.521 239.5,212.5C 227.677,212.521 216.01,213.188 204.5,214.5C 203.808,213.975 203.308,213.308 203,212.5C 201.612,213.736 200.446,215.069 199.5,216.5C 198.407,214.651 197.074,212.984 195.5,211.5C 195.167,210.167 194.833,208.833 194.5,207.5C 216.589,206.817 238.422,205.817 260,204.5C 263.485,204.632 266.818,205.299 270,206.5C 270.772,206.355 271.439,206.022 272,205.5C 272.988,207.2 274.488,208.533 276.5,209.5 Z"/></g>
<g><path style="opacity:1" fill="#028caf" d="M 412.5,210.5 C 412.642,214.223 411.309,215.056 408.5,213C 398.333,212.833 388.167,212.667 378,212.5C 363.837,212.283 350.004,212.95 336.5,214.5C 336.167,214.5 335.833,214.5 335.5,214.5C 334.833,212.5 334.167,210.5 333.5,208.5C 333.461,207.244 333.961,206.244 335,205.5C 340.496,205.963 346.496,206.296 353,206.5C 364.057,205.601 374.057,204.934 383,204.5C 384.067,205.191 385.234,205.691 386.5,206C 392.613,206.348 398.613,206.515 404.5,206.5C 406.683,204.941 408.849,204.274 411,204.5C 411.898,206.388 412.398,208.388 412.5,210.5 Z"/></g>
<g><path style="opacity:0.075" fill="#cef0f7" d="M 178.5,180.5 C 180.748,183.328 182.748,186.328 184.5,189.5C 186.262,193.362 188.262,197.028 190.5,200.5C 191.596,203.032 192.929,205.365 194.5,207.5C 194.833,208.833 195.167,210.167 195.5,211.5C 194.115,210.426 192.949,209.093 192,207.5C 187.473,198.447 182.973,189.447 178.5,180.5 Z"/></g>
<g><path style="opacity:0.118" fill="#c8ecf4" d="M 329.5,203.5 C 330.833,205.167 332.167,206.833 333.5,208.5C 334.167,210.5 334.833,212.5 335.5,214.5C 333.777,212.747 332.277,210.747 331,208.5C 329.991,206.975 329.491,205.308 329.5,203.5 Z"/></g>
<g><path style="opacity:0.935" fill="#e4f9fb" d="M 164.5,245.5 C 164.828,234.321 164.495,223.321 163.5,212.5C 158.025,211.511 152.358,211.178 146.5,211.5C 146.172,222.679 146.505,233.679 147.5,244.5C 147.5,244.833 147.5,245.167 147.5,245.5C 145.833,245.5 144.167,245.5 142.5,245.5C 142.5,245.167 142.5,244.833 142.5,244.5C 142.5,233.5 142.5,222.5 142.5,211.5C 136.642,211.178 130.975,211.511 125.5,212.5C 124.833,212.5 124.5,212.833 124.5,213.5C 123.005,213.585 122.005,212.919 121.5,211.5C 122.664,207.987 123.998,204.654 125.5,201.5C 125.5,202.167 125.5,202.833 125.5,203.5C 125.5,204.833 125.5,206.167 125.5,207.5C 131.167,207.5 136.833,207.5 142.5,207.5C 142.83,200.8 142.497,194.134 141.5,187.5C 139.929,188.309 138.262,188.643 136.5,188.5C 141.082,185.138 146.082,184.638 151.5,187C 157.272,189.106 161.438,192.939 164,198.5C 165.121,206.761 165.621,215.094 165.5,223.5C 165.5,231.008 165.166,238.341 164.5,245.5 Z"/></g>
<g><path style="opacity:0.999" fill="#73c0d3" d="M 149.5,188.5 C 147.544,194.412 146.877,200.745 147.5,207.5C 146.509,201.021 146.176,194.354 146.5,187.5C 147.791,187.263 148.791,187.596 149.5,188.5 Z"/></g>
<g><path style="opacity:0.999" fill="#0f92b3" d="M 149.5,188.5 C 158.771,191.354 163.438,197.687 163.5,207.5C 158.167,207.5 152.833,207.5 147.5,207.5C 146.877,200.745 147.544,194.412 149.5,188.5 Z"/></g>
<g><path style="opacity:0.365" fill="#dbf3f7" d="M 53.5,202.5 C 52.3992,206.488 50.7325,210.155 48.5,213.5C 47.5987,214.29 46.9321,215.29 46.5,216.5C 46.1667,216.5 45.8333,216.5 45.5,216.5C 46.6056,213.946 47.439,211.279 48,208.5C 50.068,206.604 51.9013,204.604 53.5,202.5 Z"/></g>
<g><path style="opacity:1" fill="#67c1d4" d="M 63.5,186.5 C 63.2269,189.137 62.8936,191.47 62.5,193.5C 62.9767,194.478 63.6433,195.311 64.5,196C 72.9123,200.077 81.2457,204.244 89.5,208.5C 91.1727,206.914 93.1727,206.247 95.5,206.5C 92.7547,212.325 89.7547,217.992 86.5,223.5C 84.5585,222.564 82.8919,221.23 81.5,219.5C 78.4662,218.433 75.4662,217.266 72.5,216C 73.8333,215.333 73.8333,214.667 72.5,214C 69.2464,213.75 66.2464,212.75 63.5,211C 60.681,208.425 57.681,206.092 54.5,204C 56.1554,202.556 56.822,200.722 56.5,198.5C 57.758,196.313 58.758,193.98 59.5,191.5C 60.8333,189.833 62.1667,188.167 63.5,186.5 Z"/></g>
<g><path style="opacity:1" fill="#0586aa" d="M 278.5,212.5 C 280.75,215.999 282.75,219.665 284.5,223.5C 283.711,223.217 283.044,222.717 282.5,222C 269.333,221.833 256.167,221.667 243,221.5C 229.483,221.501 216.316,222.167 203.5,223.5C 202.833,223.167 202.167,222.833 201.5,222.5C 200.833,220.5 200.167,218.5 199.5,216.5C 200.446,215.069 201.612,213.736 203,212.5C 203.308,213.308 203.808,213.975 204.5,214.5C 216.01,213.188 227.677,212.521 239.5,212.5C 251.323,212.521 262.99,213.188 274.5,214.5C 275.622,213.37 276.956,212.703 278.5,212.5 Z"/></g>
<g><path style="opacity:1" fill="#0486aa" d="M 412.5,210.5 C 413.268,211.263 413.768,212.263 414,213.5C 414.671,212.748 415.504,212.414 416.5,212.5C 418.924,215.008 420.59,218.008 421.5,221.5C 420.504,221.414 419.671,221.748 419,222.5C 418.086,218.815 417.419,219.148 417,223.5C 405.725,222.178 394.225,221.511 382.5,221.5C 370.775,221.511 359.275,222.178 348,223.5C 346.934,221.901 345.434,220.901 343.5,220.5C 342.081,221.005 341.415,222.005 341.5,223.5C 340.263,222.035 339.263,220.368 338.5,218.5C 338.473,216.801 337.806,215.467 336.5,214.5C 350.004,212.95 363.837,212.283 378,212.5C 388.167,212.667 398.333,212.833 408.5,213C 411.309,215.056 412.642,214.223 412.5,210.5 Z"/></g>
<g><path style="opacity:0.999" fill="#81cedb" d="M 56.5,198.5 C 56.822,200.722 56.1554,202.556 54.5,204C 57.681,206.092 60.681,208.425 63.5,211C 66.2464,212.75 69.2464,213.75 72.5,214C 73.8333,214.667 73.8333,215.333 72.5,216C 75.4662,217.266 78.4662,218.433 81.5,219.5C 82.8919,221.23 84.5585,222.564 86.5,223.5C 84.8248,226.245 83.1581,228.912 81.5,231.5C 79.0733,231.477 76.74,230.977 74.5,230C 66.865,225.848 59.1983,221.681 51.5,217.5C 50.549,218.326 49.549,218.492 48.5,218C 48.9662,216.701 48.9662,215.201 48.5,213.5C 50.7325,210.155 52.3992,206.488 53.5,202.5C 54.8571,201.41 55.8571,200.076 56.5,198.5 Z"/></g>
<g><path style="opacity:0.999" fill="#0691b2" d="M 163.5,212.5 C 163.5,223.167 163.5,233.833 163.5,244.5C 158.167,244.5 152.833,244.5 147.5,244.5C 147.5,233.833 147.5,223.167 147.5,212.5C 152.833,212.5 158.167,212.5 163.5,212.5 Z"/></g>
<g><path style="opacity:0.11" fill="#c1e6ee" d="M 195.5,211.5 C 197.074,212.984 198.407,214.651 199.5,216.5C 200.167,218.5 200.833,220.5 201.5,222.5C 198.742,219.322 196.742,215.655 195.5,211.5 Z"/></g>
<g><path style="opacity:0.851" fill="#84bfd0" d="M 335.5,214.5 C 335.833,214.5 336.167,214.5 336.5,214.5C 337.806,215.467 338.473,216.801 338.5,218.5C 338.167,218.5 337.833,218.5 337.5,218.5C 336.326,217.486 335.66,216.153 335.5,214.5 Z"/></g>
<g><path style="opacity:0.999" fill="#91d5e0" d="M 48.5,213.5 C 48.9662,215.201 48.9662,216.701 48.5,218C 49.549,218.492 50.549,218.326 51.5,217.5C 59.1983,221.681 66.865,225.848 74.5,230C 76.74,230.977 79.0733,231.477 81.5,231.5C 80.5294,233.483 79.5294,235.483 78.5,237.5C 76.8008,237.66 75.1341,237.494 73.5,237C 66.2001,232.164 58.2001,227.831 49.5,224C 48.2068,223.51 46.8734,223.343 45.5,223.5C 45.9926,221.194 46.3259,218.861 46.5,216.5C 46.9321,215.29 47.5987,214.29 48.5,213.5 Z"/></g>
<g><path style="opacity:1" fill="#77c5d6" d="M 163.5,212.5 C 158.167,212.5 152.833,212.5 147.5,212.5C 147.5,223.167 147.5,233.833 147.5,244.5C 146.505,233.679 146.172,222.679 146.5,211.5C 152.358,211.178 158.025,211.511 163.5,212.5 Z"/></g>
<g><path style="opacity:0.561" fill="#b9eaf3" d="M 163.5,212.5 C 164.495,223.321 164.828,234.321 164.5,245.5C 158.833,245.5 153.167,245.5 147.5,245.5C 147.5,245.167 147.5,244.833 147.5,244.5C 152.833,244.5 158.167,244.5 163.5,244.5C 163.5,233.833 163.5,223.167 163.5,212.5 Z"/></g>
<g><path style="opacity:0.078" fill="#c5edf2" d="M 337.5,218.5 C 337.833,218.5 338.167,218.5 338.5,218.5C 339.263,220.368 340.263,222.035 341.5,223.5C 341.5,224.167 341.5,224.833 341.5,225.5C 339.412,223.664 338.079,221.331 337.5,218.5 Z"/></g>
<g><path style="opacity:0.056" fill="#d1fbfe" d="M 125.5,212.5 C 125.5,223.167 125.5,233.833 125.5,244.5C 131.167,244.5 136.833,244.5 142.5,244.5C 142.5,244.833 142.5,245.167 142.5,245.5C 136.5,245.5 130.5,245.5 124.5,245.5C 124.029,234.69 124.029,224.023 124.5,213.5C 124.5,212.833 124.833,212.5 125.5,212.5 Z"/></g>
<g><path style="opacity:1" fill="#0680a4" d="M 284.5,223.5 C 286.417,226.331 288.083,229.331 289.5,232.5C 287.188,232.458 284.854,232.458 282.5,232.5C 282.331,231.603 281.998,230.603 281.5,229.5C 269.711,230.157 257.877,230.49 246,230.5C 234.108,230.489 222.442,229.822 211,228.5C 210.503,231.146 210.336,233.813 210.5,236.5C 207.407,232.653 205.074,228.32 203.5,223.5C 216.316,222.167 229.483,221.501 243,221.5C 256.167,221.667 269.333,221.833 282.5,222C 283.044,222.717 283.711,223.217 284.5,223.5 Z"/></g>
<g><path style="opacity:1" fill="#0880a4" d="M 421.5,221.5 C 424.593,225.347 426.926,229.68 428.5,234.5C 426.862,233.841 425.195,233.174 423.5,232.5C 398.437,233.405 373.437,233.905 348.5,234C 349.598,234.77 349.598,235.603 348.5,236.5C 348.167,236.5 347.833,236.5 347.5,236.5C 346.59,233.008 344.924,230.008 342.5,227.5C 341.662,227.158 341.328,226.492 341.5,225.5C 341.5,224.833 341.5,224.167 341.5,223.5C 341.415,222.005 342.081,221.005 343.5,220.5C 345.434,220.901 346.934,221.901 348,223.5C 359.275,222.178 370.775,221.511 382.5,221.5C 394.225,221.511 405.725,222.178 417,223.5C 417.419,219.148 418.086,218.815 419,222.5C 419.671,221.748 420.504,221.414 421.5,221.5 Z"/></g>
<g><path style="opacity:0.999" fill="#9ddbe4" d="M 45.5,216.5 C 45.8333,216.5 46.1667,216.5 46.5,216.5C 46.3259,218.861 45.9926,221.194 45.5,223.5C 46.8734,223.343 48.2068,223.51 49.5,224C 58.2001,227.831 66.2001,232.164 73.5,237C 75.1341,237.494 76.8008,237.66 78.5,237.5C 77.5,239.5 76.5,241.5 75.5,243.5C 74.5,243.5 73.5,243.5 72.5,243.5C 71.5313,242.691 70.6979,241.691 70,240.5C 68.9505,241.517 67.7839,241.684 66.5,241C 58.5801,236.556 50.5801,232.389 42.5,228.5C 42.4835,224.209 43.4835,220.209 45.5,216.5 Z"/></g>
<g><path style="opacity:0.09" fill="#c1e9f0" d="M 342.5,227.5 C 344.924,230.008 346.59,233.008 347.5,236.5C 345.057,233.948 343.39,230.948 342.5,227.5 Z"/></g>
<g><path style="opacity:1" fill="#07789d" d="M 428.5,234.5 C 430.588,236.336 431.921,238.669 432.5,241.5C 408.189,243.49 383.523,244.157 358.5,243.5C 354.085,242.757 350.752,240.424 348.5,236.5C 349.598,235.603 349.598,234.77 348.5,234C 373.437,233.905 398.437,233.405 423.5,232.5C 425.195,233.174 426.862,233.841 428.5,234.5 Z"/></g>
<g><path style="opacity:1" fill="#077a9e" d="M 289.5,232.5 C 291.692,235.55 293.358,238.883 294.5,242.5C 292.373,241.602 291.206,239.936 291,237.5C 289.934,239.099 288.434,240.099 286.5,240.5C 262.564,239.742 238.564,239.408 214.5,239.5C 214.5,240.833 214.5,242.167 214.5,243.5C 212.412,241.664 211.079,239.331 210.5,236.5C 210.336,233.813 210.503,231.146 211,228.5C 222.442,229.822 234.108,230.489 246,230.5C 257.877,230.49 269.711,230.157 281.5,229.5C 281.998,230.603 282.331,231.603 282.5,232.5C 284.854,232.458 287.188,232.458 289.5,232.5 Z"/></g>
<g><path style="opacity:1" fill="#aae2e9" d="M 42.5,228.5 C 50.5801,232.389 58.5801,236.556 66.5,241C 67.7839,241.684 68.9505,241.517 70,240.5C 70.6979,241.691 71.5313,242.691 72.5,243.5C 61.495,243.667 50.495,243.5 39.5,243C 41.5,242.667 43.5,242.333 45.5,242C 41.7216,240.125 38.7216,238.125 36.5,236C 38.0037,234.509 38.8371,232.676 39,230.5C 40.3024,229.915 41.469,229.249 42.5,228.5 Z"/></g>
<g><path style="opacity:0.514" fill="#4ea9c0" d="M 142.5,244.5 C 136.833,244.5 131.167,244.5 125.5,244.5C 125.5,233.833 125.5,223.167 125.5,212.5C 130.975,211.511 136.642,211.178 142.5,211.5C 142.5,222.5 142.5,233.5 142.5,244.5 Z"/></g>
<g><path style="opacity:0.998" fill="#0191b3" d="M 126.5,212.5 C 131.5,212.5 136.5,212.5 141.5,212.5C 141.5,222.833 141.5,233.167 141.5,243.5C 136.5,243.5 131.5,243.5 126.5,243.5C 126.5,233.167 126.5,222.833 126.5,212.5 Z"/></g>
<g><path style="opacity:1" fill="#0b749a" d="M 294.5,242.5 C 296.588,244.336 297.921,246.669 298.5,249.5C 297.603,248.402 296.77,248.402 296,249.5C 294.324,248.939 292.991,247.939 292,246.5C 291.481,247.516 290.647,248.182 289.5,248.5C 287.448,247.488 285.281,246.821 283,246.5C 263.627,246.923 244.293,246.923 225,246.5C 220.724,247.023 218.557,249.357 218.5,253.5C 217.662,253.158 217.328,252.492 217.5,251.5C 216.5,248.833 215.5,246.167 214.5,243.5C 214.5,242.167 214.5,240.833 214.5,239.5C 238.564,239.408 262.564,239.742 286.5,240.5C 288.434,240.099 289.934,239.099 291,237.5C 291.206,239.936 292.373,241.602 294.5,242.5 Z"/></g>
<g><path style="opacity:0.942" fill="#c5eaee" d="M 45.5,216.5 C 43.4835,220.209 42.4835,224.209 42.5,228.5C 41.469,229.249 40.3024,229.915 39,230.5C 38.8371,232.676 38.0037,234.509 36.5,236C 38.7216,238.125 41.7216,240.125 45.5,242C 43.5,242.333 41.5,242.667 39.5,243C 50.495,243.5 61.495,243.667 72.5,243.5C 73.5,243.5 74.5,243.5 75.5,243.5C 64.8333,244.167 54.1667,244.833 43.5,245.5C 39.1667,245.5 34.8333,245.5 30.5,245.5C 34.2179,235.13 39.2179,225.464 45.5,216.5 Z"/></g>
<g><path style="opacity:0.836" fill="#2f7e9a" d="M 432.5,241.5 C 433.404,242.209 433.737,243.209 433.5,244.5C 408.328,244.831 383.328,244.498 358.5,243.5C 383.523,244.157 408.189,243.49 432.5,241.5 Z"/></g>
<g><path style="opacity:0.114" fill="#c4e8f0" d="M 201.5,222.5 C 202.167,222.833 202.833,223.167 203.5,223.5C 205.074,228.32 207.407,232.653 210.5,236.5C 211.079,239.331 212.412,241.664 214.5,243.5C 215.5,246.167 216.5,248.833 217.5,251.5C 213.108,245.066 208.941,238.399 205,231.5C 203.82,228.479 202.654,225.479 201.5,222.5 Z"/></g>
<g><path style="opacity:1" fill="#096e96" d="M 298.5,249.5 C 300.588,251.336 301.921,253.669 302.5,256.5C 277.592,256.315 250.592,256.315 221.5,256.5C 220.272,255.694 219.272,254.694 218.5,253.5C 218.557,249.357 220.724,247.023 225,246.5C 244.293,246.923 263.627,246.923 283,246.5C 285.281,246.821 287.448,247.488 289.5,248.5C 290.647,248.182 291.481,247.516 292,246.5C 292.991,247.939 294.324,248.939 296,249.5C 296.77,248.402 297.603,248.402 298.5,249.5 Z"/></g>
<g><path style="opacity:1" fill="#0d688f" d="M 302.5,256.5 C 304.75,259.999 306.75,263.665 308.5,267.5C 307.542,267.047 306.708,266.381 306,265.5C 282.791,266.461 259.291,266.794 235.5,266.5C 235.404,270.311 234.738,270.311 233.5,266.5C 231.862,267.705 231.529,269.038 232.5,270.5C 231.05,271.85 230.383,273.516 230.5,275.5C 229.662,275.158 229.328,274.492 229.5,273.5C 228.258,269.345 226.258,265.678 223.5,262.5C 222.833,260.5 222.167,258.5 221.5,256.5C 250.592,256.315 277.592,256.315 302.5,256.5 Z"/></g>
<g><path style="opacity:0.075" fill="#cfebf2" d="M 218.5,253.5 C 219.272,254.694 220.272,255.694 221.5,256.5C 222.167,258.5 222.833,260.5 223.5,262.5C 221.057,259.948 219.39,256.948 218.5,253.5 Z"/></g>
<g><path style="opacity:1" fill="#0e6088" d="M 308.5,267.5 C 310.252,270.672 312.252,273.672 314.5,276.5C 314.5,276.833 314.5,277.167 314.5,277.5C 314.5,277.833 314.5,278.167 314.5,278.5C 313.175,277.047 312.342,277.381 312,279.5C 310.354,277.403 308.354,275.736 306,274.5C 282.495,275.742 258.828,275.742 235,274.5C 234.626,275.416 234.126,276.25 233.5,277C 234.416,277.374 235.25,277.874 236,278.5C 236.05,280.744 236.883,282.411 238.5,283.5C 237.89,284.391 237.557,285.391 237.5,286.5C 237.167,286.5 236.833,286.5 236.5,286.5C 235.258,282.345 233.258,278.678 230.5,275.5C 230.383,273.516 231.05,271.85 232.5,270.5C 231.529,269.038 231.862,267.705 233.5,266.5C 234.738,270.311 235.404,270.311 235.5,266.5C 259.291,266.794 282.791,266.461 306,265.5C 306.708,266.381 307.542,267.047 308.5,267.5 Z"/></g>
<g><path style="opacity:0.071" fill="#c5dfe9" d="M 223.5,262.5 C 226.258,265.678 228.258,269.345 229.5,273.5C 226.385,270.532 224.385,266.866 223.5,262.5 Z"/></g>
<g><path style="opacity:1" fill="#0c5a83" d="M 314.5,278.5 C 315.674,279.514 316.34,280.847 316.5,282.5C 315.504,282.586 314.671,282.252 314,281.5C 313.309,283.891 312.309,283.891 311,281.5C 288.196,282.829 265.363,282.829 242.5,281.5C 241.522,281.977 240.689,282.643 240,283.5C 238.269,280.969 237.769,280.969 238.5,283.5C 236.883,282.411 236.05,280.744 236,278.5C 235.25,277.874 234.416,277.374 233.5,277C 234.126,276.25 234.626,275.416 235,274.5C 258.828,275.742 282.495,275.742 306,274.5C 308.354,275.736 310.354,277.403 312,279.5C 312.342,277.381 313.175,277.047 314.5,278.5 Z"/></g>
<g><path style="opacity:0.484" fill="#94c3d2" d="M 452.5,276.5 C 452.5,276.833 452.5,277.167 452.5,277.5C 446.167,277.5 439.833,277.5 433.5,277.5C 431.167,277.5 428.833,277.5 426.5,277.5C 424.167,277.5 421.833,277.5 419.5,277.5C 414.167,277.5 408.833,277.5 403.5,277.5C 399.167,277.5 394.833,277.5 390.5,277.5C 387.5,277.5 384.5,277.5 381.5,277.5C 375.833,277.5 370.167,277.5 364.5,277.5C 355.167,277.5 345.833,277.5 336.5,277.5C 329.167,277.5 321.833,277.5 314.5,277.5C 314.5,277.167 314.5,276.833 314.5,276.5C 314.833,276.5 315.167,276.5 315.5,276.5C 360.933,275.943 406.599,275.943 452.5,276.5 Z"/></g>
<g><path style="opacity:0.086" fill="#cce3ec" d="M 230.5,275.5 C 233.258,278.678 235.258,282.345 236.5,286.5C 233.742,283.322 231.742,279.655 230.5,275.5 Z"/></g>
<g><path style="opacity:1" fill="#0f547e" d="M 426.5,277.5 C 428.833,277.5 431.167,277.5 433.5,277.5C 433.739,290.357 433.406,303.19 432.5,316C 435.365,316.183 438.031,316.683 440.5,317.5C 435.5,317.5 430.5,317.5 425.5,317.5C 425.186,304.087 425.519,290.754 426.5,277.5 Z"/></g>
<g><path style="opacity:1" fill="#2ea6c1" d="M 314.5,278.5 C 314.5,278.167 314.5,277.833 314.5,277.5C 321.833,277.5 329.167,277.5 336.5,277.5C 336.666,286.839 336.5,296.173 336,305.5C 335.329,304.748 334.496,304.414 333.5,304.5C 332.5,303.833 331.5,303.167 330.5,302.5C 327.25,298.978 324.25,295.311 321.5,291.5C 320.083,288.331 318.417,285.331 316.5,282.5C 316.34,280.847 315.674,279.514 314.5,278.5 Z"/></g>
<g><path style="opacity:1" fill="#149ab8" d="M 336.5,277.5 C 345.833,277.5 355.167,277.5 364.5,277.5C 364.5,277.833 364.5,278.167 364.5,278.5C 361.167,278.5 357.833,278.5 354.5,278.5C 354.456,289.876 354.456,301.043 354.5,312C 353.833,312.333 353.167,312.667 352.5,313C 355.97,315.123 355.97,316.29 352.5,316.5C 346.914,314.374 341.581,311.707 336.5,308.5C 335.5,307.167 334.5,305.833 333.5,304.5C 334.496,304.414 335.329,304.748 336,305.5C 336.5,296.173 336.666,286.839 336.5,277.5 Z"/></g>
<g><path style="opacity:1" fill="#018eb1" d="M 364.5,278.5 C 366.59,278.45 367.923,279.45 368.5,281.5C 368.028,292.303 367.694,303.136 367.5,314C 368.071,315.599 369.071,316.766 370.5,317.5C 364.5,317.5 358.5,317.5 352.5,317.5C 352.5,317.167 352.5,316.833 352.5,316.5C 355.97,316.29 355.97,315.123 352.5,313C 353.167,312.667 353.833,312.333 354.5,312C 354.456,301.043 354.456,289.876 354.5,278.5C 357.833,278.5 361.167,278.5 364.5,278.5 Z"/></g>
<g><path style="opacity:1" fill="#0481a5" d="M 364.5,278.5 C 364.5,278.167 364.5,277.833 364.5,277.5C 370.167,277.5 375.833,277.5 381.5,277.5C 381.811,278.478 382.478,279.145 383.5,279.5C 384.773,291.853 384.773,304.186 383.5,316.5C 385.099,316.232 386.432,316.566 387.5,317.5C 381.833,317.5 376.167,317.5 370.5,317.5C 369.071,316.766 368.071,315.599 367.5,314C 367.694,303.136 368.028,292.303 368.5,281.5C 367.923,279.45 366.59,278.45 364.5,278.5 Z"/></g>
<g><path style="opacity:1" fill="#05799d" d="M 381.5,277.5 C 384.5,277.5 387.5,277.5 390.5,277.5C 391.245,290.22 391.579,303.22 391.5,316.5C 392.791,316.263 393.791,316.596 394.5,317.5C 392.167,317.5 389.833,317.5 387.5,317.5C 386.432,316.566 385.099,316.232 383.5,316.5C 384.773,304.186 384.773,291.853 383.5,279.5C 382.478,279.145 381.811,278.478 381.5,277.5 Z"/></g>
<g><path style="opacity:1" fill="#077197" d="M 390.5,277.5 C 394.833,277.5 399.167,277.5 403.5,277.5C 402.602,278.158 401.602,278.824 400.5,279.5C 400.935,291.504 400.935,303.837 400.5,316.5C 403.059,316.198 405.393,316.532 407.5,317.5C 403.167,317.5 398.833,317.5 394.5,317.5C 393.791,316.596 392.791,316.263 391.5,316.5C 391.579,303.22 391.245,290.22 390.5,277.5 Z"/></g>
<g><path style="opacity:1" fill="#0a658d" d="M 403.5,277.5 C 408.833,277.5 414.167,277.5 419.5,277.5C 418.791,278.404 417.791,278.737 416.5,278.5C 415.838,292.445 415.838,305.445 416.5,317.5C 413.5,317.5 410.5,317.5 407.5,317.5C 405.393,316.532 403.059,316.198 400.5,316.5C 400.935,303.837 400.935,291.504 400.5,279.5C 401.602,278.824 402.602,278.158 403.5,277.5 Z"/></g>
<g><path style="opacity:1" fill="#0c5c85" d="M 419.5,277.5 C 421.833,277.5 424.167,277.5 426.5,277.5C 425.519,290.754 425.186,304.087 425.5,317.5C 422.5,317.5 419.5,317.5 416.5,317.5C 415.838,305.445 415.838,292.445 416.5,278.5C 417.791,278.737 418.791,278.404 419.5,277.5 Z"/></g>
<g><path style="opacity:1" fill="#114975" d="M 433.5,277.5 C 439.833,277.5 446.167,277.5 452.5,277.5C 453.529,279.517 454.529,281.517 455.5,283.5C 452.679,282.84 450.679,281.173 449.5,278.5C 449.167,279.667 448.833,280.833 448.5,282C 448.252,293.113 448.252,304.613 448.5,316.5C 451.059,316.198 453.393,316.532 455.5,317.5C 450.5,317.5 445.5,317.5 440.5,317.5C 438.031,316.683 435.365,316.183 432.5,316C 433.406,303.19 433.739,290.357 433.5,277.5 Z"/></g>
<g><path style="opacity:1" fill="#14416e" d="M 455.5,283.5 C 457.417,286.331 459.083,289.331 460.5,292.5C 458.77,291.024 457.437,291.358 456.5,293.5C 458.7,300.936 459.034,308.436 457.5,316C 460,316.167 462.5,316.333 465,316.5C 467.929,316.475 470.429,315.809 472.5,314.5C 473.338,314.842 473.672,315.508 473.5,316.5C 467.69,317.49 461.69,317.823 455.5,317.5C 453.393,316.532 451.059,316.198 448.5,316.5C 448.252,304.613 448.252,293.113 448.5,282C 448.833,280.833 449.167,279.667 449.5,278.5C 450.679,281.173 452.679,282.84 455.5,283.5 Z"/></g>
<g><path style="opacity:1" fill="#0e547e" d="M 316.5,282.5 C 318.417,285.331 320.083,288.331 321.5,291.5C 295.008,290.92 268.008,290.92 240.5,291.5C 239.263,290.035 238.263,288.368 237.5,286.5C 237.557,285.391 237.89,284.391 238.5,283.5C 237.769,280.969 238.269,280.969 240,283.5C 240.689,282.643 241.522,281.977 242.5,281.5C 265.363,282.829 288.196,282.829 311,281.5C 312.309,283.891 313.309,283.891 314,281.5C 314.671,282.252 315.504,282.586 316.5,282.5 Z"/></g>
<g><path style="opacity:0.075" fill="#d2e4ee" d="M 236.5,286.5 C 236.833,286.5 237.167,286.5 237.5,286.5C 238.263,288.368 239.263,290.035 240.5,291.5C 240.833,292.833 241.167,294.167 241.5,295.5C 239.076,292.992 237.41,289.992 236.5,286.5 Z"/></g>
<g><path style="opacity:1" fill="#104e79" d="M 321.5,291.5 C 324.25,295.311 327.25,298.978 330.5,302.5C 328.516,302.617 326.85,301.95 325.5,300.5C 323.554,302.087 322.054,301.754 321,299.5C 319.647,300.704 317.981,301.371 316,301.5C 295.463,301.652 275.129,301.319 255,300.5C 252.966,300.354 251.299,301.02 250,302.5C 248.539,301.117 247.706,301.451 247.5,303.5C 246.833,303.167 246.167,302.833 245.5,302.5C 244.921,299.669 243.588,297.336 241.5,295.5C 241.167,294.167 240.833,292.833 240.5,291.5C 268.008,290.92 295.008,290.92 321.5,291.5 Z"/></g>
<g><path style="opacity:0.998" fill="#193a67" d="M 460.5,292.5 C 464.484,299.798 468.484,307.132 472.5,314.5C 470.429,315.809 467.929,316.475 465,316.5C 462.5,316.333 460,316.167 457.5,316C 459.034,308.436 458.7,300.936 456.5,293.5C 457.437,291.358 458.77,291.024 460.5,292.5 Z"/></g>
<g><path style="opacity:0.094" fill="#cedfe7" d="M 241.5,295.5 C 243.588,297.336 244.921,299.669 245.5,302.5C 243.331,300.66 241.998,298.326 241.5,295.5 Z"/></g>
<g><path style="opacity:1" fill="#114774" d="M 330.5,302.5 C 331.5,303.167 332.5,303.833 333.5,304.5C 334.5,305.833 335.5,307.167 336.5,308.5C 311.052,309.531 285.552,309.531 260,308.5C 259.167,309.333 258.333,310.167 257.5,311C 258.381,311.708 259.047,312.542 259.5,313.5C 258.833,313.5 258.167,313.5 257.5,313.5C 257.027,312.094 256.027,311.427 254.5,311.5C 253.415,309.413 251.749,308.08 249.5,307.5C 249.267,305.938 248.6,304.605 247.5,303.5C 247.706,301.451 248.539,301.117 250,302.5C 251.299,301.02 252.966,300.354 255,300.5C 275.129,301.319 295.463,301.652 316,301.5C 317.981,301.371 319.647,300.704 321,299.5C 322.054,301.754 323.554,302.087 325.5,300.5C 326.85,301.95 328.516,302.617 330.5,302.5 Z"/></g>
<g><path style="opacity:0.004" fill="#d6e5ee" d="M 245.5,302.5 C 246.167,302.833 246.833,303.167 247.5,303.5C 248.6,304.605 249.267,305.938 249.5,307.5C 247.413,306.415 246.08,304.749 245.5,302.5 Z"/></g>
<g><path style="opacity:1" fill="#13426f" d="M 336.5,308.5 C 341.581,311.707 346.914,314.374 352.5,316.5C 352.5,316.833 352.5,317.167 352.5,317.5C 325.167,317.5 297.833,317.5 270.5,317.5C 268.485,316.076 266.152,315.41 263.5,315.5C 261.847,315.34 260.514,314.674 259.5,313.5C 259.047,312.542 258.381,311.708 257.5,311C 258.333,310.167 259.167,309.333 260,308.5C 285.552,309.531 311.052,309.531 336.5,308.5 Z"/></g>
<g><path style="opacity:0.318" fill="#dae8ef" d="M 452.5,276.5 C 454.074,276.937 455.241,277.937 456,279.5C 462.65,291.968 469.15,304.468 475.5,317C 475.43,317.765 475.097,318.265 474.5,318.5C 474.672,317.508 474.338,316.842 473.5,316.5C 473.672,315.508 473.338,314.842 472.5,314.5C 468.484,307.132 464.484,299.798 460.5,292.5C 459.083,289.331 457.417,286.331 455.5,283.5C 454.529,281.517 453.529,279.517 452.5,277.5C 452.5,277.167 452.5,276.833 452.5,276.5 Z"/></g>
<g><path style="opacity:0.11" fill="#bfd1df" d="M 249.5,307.5 C 251.749,308.08 253.415,309.413 254.5,311.5C 252.251,310.92 250.585,309.587 249.5,307.5 Z"/></g>
<g><path style="opacity:0.114" fill="#c8d9e5" d="M 254.5,311.5 C 256.027,311.427 257.027,312.094 257.5,313.5C 255.973,313.573 254.973,312.906 254.5,311.5 Z"/></g>
<g><path style="opacity:0.043" fill="#dfebf4" d="M 257.5,313.5 C 258.167,313.5 258.833,313.5 259.5,313.5C 260.514,314.674 261.847,315.34 263.5,315.5C 264.5,316.167 265.5,316.833 266.5,317.5C 262.835,317.498 259.835,316.165 257.5,313.5 Z"/></g>
<g><path style="opacity:0.659" fill="#5e7c9a" d="M 263.5,315.5 C 266.152,315.41 268.485,316.076 270.5,317.5C 269.5,317.5 268.5,317.5 267.5,317.5C 267.167,317.5 266.833,317.5 266.5,317.5C 265.5,316.833 264.5,316.167 263.5,315.5 Z"/></g>
<g><path style="opacity:0.31" fill="#a9cbdc" d="M 473.5,316.5 C 474.338,316.842 474.672,317.508 474.5,318.5C 405.331,318.833 336.331,318.499 267.5,317.5C 268.5,317.5 269.5,317.5 270.5,317.5C 297.833,317.5 325.167,317.5 352.5,317.5C 358.5,317.5 364.5,317.5 370.5,317.5C 376.167,317.5 381.833,317.5 387.5,317.5C 389.833,317.5 392.167,317.5 394.5,317.5C 398.833,317.5 403.167,317.5 407.5,317.5C 410.5,317.5 413.5,317.5 416.5,317.5C 419.5,317.5 422.5,317.5 425.5,317.5C 430.5,317.5 435.5,317.5 440.5,317.5C 445.5,317.5 450.5,317.5 455.5,317.5C 461.69,317.823 467.69,317.49 473.5,316.5 Z"/></g>
</svg>
